<?xml version="1.0" standalone="no"?><!DOCTYPE svg PUBLIC "-//W3C//DTD SVG 1.1//EN" "http://www.w3.org/Graphics/SVG/1.1/DTD/svg11.dtd"><svg class="icon" width="200px" height="200.00px" viewBox="0 0 1024 1024" version="1.1" xmlns="http://www.w3.org/2000/svg"><path fill="#d81e06" d="M1006.499929 152.134933l0.164752-0.220011 0 0c8.147564-14.202467 13.155624-30.249955 13.155624-47.562249 0-54.80214-46.24116-99.226932-103.271038-99.226932-33.030277 0-62.043055 15.138792-80.981383 38.260395l-0.055259-0.027629-0.328481 0.523933c-5.229095 6.467295-9.854439 13.349029-13.322423 20.946055L392.200008 741.028207 194.350918 508.939291l0 0c-18.552541-26.643823-50.095955-44.149523-85.877903-44.149523-57.031924 0-103.328343 44.369533-103.328343 99.145068 0 27.855418 12.001335 52.901861 31.212886 70.958098l262.697027 339.5463 0 0c18.443048 27.250644 50.261731 45.36214 86.593194 45.36214 43.104727 0 79.986729-25.38004 95.40079-61.380976l518.404873-795.413861C1002.094596 159.566182 1004.353033 155.905816 1006.499929 152.134933z" /></svg>